<svg width="631" height="62" viewBox="0 0 631 62" fill="none" xmlns="http://www.w3.org/2000/svg">
<path d="M563.192 61.1722V24.5212H567.809V26.9722C569.804 24.5782 571.913 23.9512 573.452 23.9512C579.209 23.9512 582.515 26.5732 582.515 35.5222V41.9062C582.515 49.4302 577.556 53.4772 571.001 53.4772H567.809V61.1722H563.192ZM567.809 32.0452V49.6012H570.83C574.592 49.6012 577.898 46.4662 577.898 42.1912V35.4652C577.898 29.8792 576.701 27.7702 572.768 27.7702C570.716 27.7702 568.493 30.2782 567.809 32.0452Z" fill="#FF6114"/>
<path d="M545.559 55.486C537.357 55.486 533 47.9251 533 39.2109C533 30.4968 537.357 23 545.559 23C553.888 23 558.181 30.4968 558.181 39.2109C558.181 47.9251 553.888 55.486 545.559 55.486ZM545.559 51.3852C551.005 51.3852 553.376 45.4903 553.376 39.2109C553.376 32.9957 551.005 27.1008 545.559 27.1008C540.24 27.1008 537.806 32.9957 537.806 39.2109C537.806 45.4903 540.24 51.3852 545.559 51.3852Z" fill="#FF6114"/>
<path d="M480.186 54.9482H475.124L465 24H469.998L477.687 49.5018L485.44 24H490.374L480.186 54.9482Z" fill="#FF6114"/>
<path d="M23.2351 22.0264L13.7297 22.0784V1.37891H0V53.8957H13.7297V32.4621H23.2351V53.8957H36.9666V1.37891H23.2351V22.0264Z" fill="#FF6114"/>
<path d="M56.6171 13.8398C46.3394 13.8398 38.7673 21.7174 38.769 34.0205C38.769 38.2083 39.8208 43.847 42.1429 47.2364C44.052 50.0202 47.1863 52.929 52.4762 54.1039C56.9174 55.0897 63.3509 55.0463 70.7113 52.089L70.772 41.0389C66.704 44.2236 59.0295 45.8671 55.135 43.3662C53.429 42.2694 52.5855 40.1607 52.1586 38.0833H71.2163C74.0279 22.5747 66.6658 13.8398 56.6154 13.8398M55.8674 22.7448C58.8559 22.7448 59.4096 26.8927 59.3315 29.8552L51.7334 29.8969C51.8201 26.5664 52.5803 22.7431 55.8674 22.7431" fill="#FF6114"/>
<path d="M94.063 43.6738C89.7468 43.0958 86.9942 39.5641 87.0654 34.2846C87.0949 32.0683 87.6034 28.8229 90.3542 26.5806C92.4958 24.8347 96.8832 24.137 101.154 25.8153V14.9978C96.6403 13.1546 87.9401 13.3004 82.8134 16.525C78.9223 18.9738 73.3669 24.1787 73.3669 34.3801C73.3669 44.5814 77.9348 49.8644 82.3778 52.3774C88.9033 56.0689 97.777 54.7464 101.637 52.6238V42.0667C100.307 43.0906 97.1748 44.092 94.0613 43.6755" fill="#FF6114"/>
<path d="M120.6 43.565C118.713 42.8135 117.408 41.4997 117.408 37.3067V26.2532H126.974V14.3493H117.547V0L103.9 6.68349V14.0247C103.9 18.9536 108.9 20.821 108.9 20.821C105.315 23.3809 103.9 26.2081 103.9 31.9422V39.6167C103.9 44.9309 105.363 48.6431 108.769 51.5883C112.34 54.6758 120.134 55.7848 127.759 53.2978V42.4439C126.254 43.5615 122.837 44.4553 120.603 43.565" fill="#FF6114"/>
<path d="M149.836 4.78906C138.357 4.78906 129.051 13.9422 129.051 25.2335C129.051 36.5248 138.357 45.6779 149.836 45.6779C161.315 45.6779 170.62 36.5248 170.62 25.2335C170.62 13.9422 161.315 4.78906 149.836 4.78906ZM149.836 32.665C146.073 32.665 143.024 29.338 143.024 25.2335C143.024 21.129 146.073 17.802 149.836 17.802C153.598 17.802 156.648 21.129 156.648 25.2335C156.648 29.338 153.598 32.665 149.836 32.665Z" fill="#FF6114"/>
<path d="M149.836 48.9883C144.803 48.9883 139.449 51.123 137.028 55.0001H162.642C160.223 51.123 154.869 48.9883 149.834 48.9883" fill="#FF6114"/>
<path d="M187 53.7503V11H209.357V15.4909H192.213V29.6392H208.892V34.1301H192.213V53.7285H187V53.7503Z" fill="#FF6114"/>
<path d="M214.769 14.4635C214.769 12.7412 216.277 11.3242 217.963 11.3242C219.649 11.3242 221.157 12.7412 221.157 14.4635C221.157 16.1857 219.715 17.6027 217.963 17.6027C216.211 17.6027 214.769 16.1857 214.769 14.4635ZM215.678 53.7475V22.813H220.314V53.7475H215.678Z" fill="#FF6114"/>
<path d="M245.488 53.7467V31.7067C245.488 27.6082 243.602 26.1258 240.475 26.1258C237.348 26.1258 234.553 28.502 233.112 31.0527V53.7249H228.476V22.7904H233.112V27.2158C234.93 24.5344 238.457 22.0273 242.227 22.0273C247.573 22.0273 250.19 24.8396 250.19 30.4204V53.7467H245.488Z" fill="#FF6114"/>
<path d="M304.285 53.7467V31.7067C304.285 27.6082 302.4 26.1258 299.272 26.1258C296.145 26.1258 293.351 28.502 291.909 31.0527V53.7249H287.273V22.7904H291.909V27.2158C293.728 24.5344 297.254 22.0273 301.025 22.0273C306.37 22.0273 308.987 24.8396 308.987 30.4204V53.7467H304.285Z" fill="#FF6114"/>
<path d="M342.234 14.4635C342.234 12.7412 343.742 11.3242 345.428 11.3242C347.114 11.3242 348.622 12.7412 348.622 14.4635C348.622 16.1857 347.18 17.6027 345.428 17.6027C343.676 17.6027 342.234 16.1857 342.234 14.4635ZM343.143 53.7475V22.813H347.779V53.7475H343.143Z" fill="#FF6114"/>
<path d="M384.863 53.7503V11H389.498V53.7285H384.863V53.7503Z" fill="#FF6114"/>
<path d="M267.866 22.0273C264.739 22.0273 261.212 22.9212 258.395 24.796V29.7446C260.813 27.085 264.229 25.995 267.156 25.995C271.259 25.995 274.52 28.3712 274.52 32.6005V37.9851C272.568 35.2383 269.441 34.0175 266.247 34.0175C261.101 34.0175 256.732 37.7235 256.732 44.1982C256.732 50.6729 261.168 54.5097 266.247 54.5097C269.441 54.5097 272.501 53.2235 274.52 50.4113V53.7467H279.222V32.0991C279.222 25.0576 274.143 22.0491 267.888 22.0491L267.866 22.0273ZM274.498 47.272C273.056 49.8445 270.461 51.1743 267.711 51.1743C263.807 51.1743 261.456 48.1005 261.456 44.2636C261.456 40.4268 263.807 37.4183 267.711 37.4183C270.439 37.4183 273.056 38.7699 274.498 41.386V47.272Z" fill="#FF6114"/>
<path d="M365.456 22.0273C362.329 22.0273 358.802 22.9212 355.985 24.796V29.7446C358.403 27.085 361.818 25.995 364.746 25.995C368.849 25.995 372.11 28.3712 372.11 32.6005V37.9851C370.158 35.2383 367.031 34.0175 363.837 34.0175C358.691 34.0175 354.322 37.7235 354.322 44.1982C354.322 50.6729 358.758 54.5097 363.837 54.5097C367.031 54.5097 370.091 53.2235 372.11 50.4113V53.7467H376.812V32.0991C376.812 25.0576 371.733 22.0491 365.478 22.0491L365.456 22.0273ZM372.087 47.272C370.646 49.8445 368.051 51.1743 365.301 51.1743C361.397 51.1743 359.046 48.1005 359.046 44.2636C359.046 40.4268 361.397 37.4183 365.301 37.4183C368.029 37.4183 370.646 38.7699 372.087 41.386V47.272Z" fill="#FF6114"/>
<path d="M329.459 26.1281C331.854 26.1281 334.693 27.0219 336.401 29.2237V23.948C334.449 22.7708 331.943 22.0078 329.082 22.0078C321.009 22.0078 315.597 29.0493 315.597 38.2272C315.597 47.4051 321.009 54.4902 329.082 54.4902C331.943 54.4902 334.449 53.7708 336.401 52.5936V47.2961C334.693 49.4543 331.877 50.3918 329.459 50.3918C323.848 50.3918 320.476 44.8109 320.476 38.2272C320.476 31.6435 323.87 26.1281 329.459 26.1281Z" fill="#FF6114"/>
<path d="M617 54.5826V23.6539H621.69V28.5798C623.732 25.3104 626.828 23 630.732 23V27.7298C630.194 27.599 629.678 27.5336 629.139 27.5336C626.245 27.5336 623.014 30.0401 621.69 32.5903V54.5608H617V54.5826Z" fill="#FF6114"/>
<path d="M609.516 48.1309C607.429 50.3106 603.457 51.7055 600.495 51.6401C594.818 51.5311 591.071 46.9539 590.869 40.7421H611.513V39.3253C611.513 30.3017 607.294 23 598.925 23C590.555 23 586 30.2363 586 39.2163C586 48.6976 591.61 55.4762 600.114 55.4762C603.323 55.4762 606.733 54.8006 609.538 52.8825V48.1309H609.516ZM598.857 26.8579C604.669 26.8579 606.778 32.6121 606.845 37.3637H590.892C591.026 32.8083 593.27 26.8579 598.88 26.8579H598.857Z" fill="#FF6114"/>
<path d="M523 54.7422V12H527.69V54.7204H523V54.7422Z" fill="#FF6114"/>
<path d="M516.516 48.1309C514.429 50.3106 510.457 51.7055 507.495 51.6401C501.818 51.5311 498.071 46.9539 497.869 40.7421H518.513V39.3253C518.513 30.3017 514.294 23 505.925 23C497.555 23 493 30.2363 493 39.2163C493 48.6976 498.61 55.4762 507.114 55.4762C510.323 55.4762 513.733 54.8006 516.538 52.8825V48.1309H516.516ZM505.857 26.8579C511.669 26.8579 513.778 32.6121 513.845 37.3637H497.892C498.026 32.8083 500.27 26.8579 505.88 26.8579H505.857Z" fill="#FF6114"/>
<path d="M407 54.7436V12H418.598C429.863 12 436.073 21.1547 436.073 33.4045C436.073 45.6543 429.886 54.7436 418.598 54.7436H407ZM412.211 50.188H418.598C426.603 50.188 430.728 43.0169 430.728 33.4045C430.728 23.7921 426.692 16.4901 418.598 16.4901H412.211V50.188Z" fill="#FF6114"/>
<path d="M461.02 48.101C459.153 50.1017 455.605 51.3821 452.964 51.3288C447.896 51.2354 444.548 47.034 444.375 41.3121H462.808V40.0183C462.808 31.7089 459.033 25 451.551 25C444.068 25 440 31.6555 440 39.8983C440 48.6212 445.002 54.8633 452.604 54.8633C455.485 54.8633 458.526 54.2364 461.02 52.4758V48.101ZM451.497 28.5345C456.686 28.5345 458.566 33.8296 458.62 38.1911H444.361C444.481 34.003 446.482 28.5345 451.484 28.5345H451.497Z" fill="#FF6114"/>
</svg>
